<svg width="59" height="59" xmlns="http://www.w3.org/2000/svg" xmlns:xlink="http://www.w3.org/1999/xlink" xml:space="preserve" overflow="hidden"><g transform="translate(-660 -61)"><path d="M712.547 107.462 704.865 99.7802C703.82 98.7354 702.406 98.3667 701.054 98.6125L698.35 95.9083C700.747 92.8354 702.16 88.9021 702.16 84.7229 702.16 74.5823 693.864 66.2854 683.723 66.2854 673.582 66.2854 665.285 74.5823 665.285 84.7229 665.285 94.8635 673.582 103.16 683.723 103.16 687.902 103.16 691.774 101.747 694.908 99.35L697.612 102.054C697.367 103.406 697.735 104.82 698.78 105.865L706.463 113.547C707.323 114.407 708.429 114.837 709.535 114.837 710.642 114.837 711.748 114.407 712.608 113.547 714.206 111.826 714.206 109.122 712.547 107.462ZM683.661 99.4115C675.549 99.4115 668.911 92.774 668.911 84.6615 668.911 76.549 675.549 69.9115 683.661 69.9115 691.774 69.9115 698.411 76.549 698.411 84.6615 698.411 92.774 691.774 99.4115 683.661 99.4115Z" fill="#7030A0"/></g></svg>